# WaveFront *.obj file (generated by CINEMA 4D)

v -0.5 -0.5 -0.5
v -0.5 0.5 -0.5
v 0.5 -0.5 -0.5
v 0.5 0.5 -0.5
v 0.5 -0.5 0.5
v 0.5 0.5 0.5
v -0.5 -0.5 0.5
v -0.5 0.5 0.5
# 8 vertices

vn 0 0 -1
vn 0 0 -1
vn 0 0 -1
vn 0 0 0
vn 1 0 0
vn 1 0 0
vn 1 0 0
vn 0 0 0
vn 0 0 1
vn 0 0 1
vn 0 0 1
vn 0 0 0
vn -1 0 0
vn -1 0 0
vn -1 0 0
vn 0 0 0
vn 0 1 0
vn 0 1 0
vn 0 1 0
vn 0 0 0
vn 0 -1 0
vn 0 -1 0
vn 0 -1 0
vn 0 0 0
vn 0 0 -1
vn 0 0 -1
vn 0 0 -1
vn 0 0 0
vn 1 0 0
vn 1 0 0
vn 1 0 0
vn 0 0 0
vn 0 0 1
vn 0 0 1
vn 0 0 1
vn 0 0 0
vn -1 0 0
vn -1 0 0
vn -1 0 0
vn 0 0 0
vn 0 1 0
vn 0 1 0
vn 0 1 0
vn 0 0 0
vn 0 -1 0
vn 0 -1 0
vn 0 -1 0
vn 0 0 0
# 48 normals

vt 0 1 0
vt 0 0 0
vt 1 0 0
vt 0 0 0
vt 0 1 0
vt 0 0 0
vt 1 0 0
vt 0 0 0
vt 0 1 0
vt 0 0 0
vt 1 0 0
vt 0 0 0
vt 0 1 0
vt 0 0 0
vt 1 0 0
vt 0 0 0
vt 0 1 0
vt 0 0 0
vt 1 0 0
vt 0 0 0
vt 0 1 0
vt 0 0 0
vt 1 0 0
vt 0 0 0
vt 0 1 0
vt 1 0 0
vt 1 1 0
vt 0 0 0
vt 0 1 0
vt 1 0 0
vt 1 1 0
vt 0 0 0
vt 0 1 0
vt 1 0 0
vt 1 1 0
vt 0 0 0
vt 0 1 0
vt 1 0 0
vt 1 1 0
vt 0 0 0
vt 0 1 0
vt 1 0 0
vt 1 1 0
vt 0 0 0
vt 0 1 0
vt 1 0 0
vt 1 1 0
vt 0 0 0
# 48 texture coordinates

o Cube
usemtl default
f 1/3/1 2/2/1 4/1/1
f 3/3/5 4/2/5 6/1/5
f 5/3/9 6/2/9 8/1/9
f 7/3/13 8/2/13 2/1/13
f 2/3/17 8/2/17 6/1/17
f 7/3/21 1/2/21 3/1/21
f 1/27/1 4/3/1 3/1/1
f 3/27/5 6/3/5 5/1/5
f 5/27/9 8/3/9 7/1/9
f 7/27/13 2/3/13 1/1/13
f 2/27/17 6/3/17 4/1/17
f 7/27/21 3/3/21 5/1/21

