# WaveFront *.obj file (generated by CINEMA 4D)

v -1 -1 -1.45852088928223
v -1.12627995014191 1.04902768135071 -1
v 1 -1 -1.45852088928223
v 1 1 -1.45852088928223
v 0.30941826105118 -1 0.3018062710762
v 0.30941826105118 1 0.3018062710762
v 0.87371999025345 1.04902768135071 -1
v -1.69058167934418 1 0.3018062710762
v -1.12627995014191 -0.95097231864929 -1
v 1 -1 1.04126787185669
v 1 1 1.04126787185669
v -1 1 1.04126787185669
# 12 vertices

vn 0 0 -1
vn 0 0 0
# 2 normals

vt 0 0 0
vt 0 1 0
vt 1 1 0
vt 1 0 0
# 4 texture coordinates

o Cube.2
usemtl default
f 9/1/1 2/2/1 7/3/1
f 1/1/1 4/3/1 3/4/1
f 5/1/1 8/3/1 6/2/1
f 10/1/1 12/3/1 11/2/1

